<svg id="fd1a6b94-c5bb-48c5-a11f-9a28f6549215" data-name="Composant 1 1" xmlns="http://www.w3.org/2000/svg" viewBox="0 0 8.51 18.6"><path id="f190d42d-acf2-4056-97bb-8d150b33324b" data-name="Polygone 3" d="M5.86,19.09a1,1,0,0,1-1.36.36,1,1,0,0,1-.36-.36L.88,13.5a1,1,0,0,1,.36-1.36,1,1,0,0,1,.5-.14H8.26a1,1,0,0,1,1,1,1,1,0,0,1-.14.49Z" transform="translate(-0.74 -0.98)" fill="#fff"/><path id="b586cd18-87b0-4b31-94b3-7cdc862856ea" data-name="Polygone 4" d="M4.14,1.48A1,1,0,0,1,5.5,1.12a1,1,0,0,1,.36.36L9.12,7.07a1,1,0,0,1-.86,1.5H1.74a1,1,0,0,1-1-1,1,1,0,0,1,.14-.5Z" transform="translate(-0.74 -0.98)" fill="#fff"/></svg>